<svg width="1000" height="1000" viewBox="0 0 1000 1000" fill="none" xmlns="http://www.w3.org/2000/svg">
<path d="M494.184 873.338C409.188 773.239 370.714 730.017 314 682.5L406.714 592.357L500.827 500.648L542.355 460.182C594.091 409.661 676.481 411.314 726.281 463.798C776.082 516.282 774.452 599.864 722.717 650.385C628.136 724.628 577.991 773.008 494.184 873.338Z" fill="#34D399"/>
<path d="M680.5 684.28C608 722.28 560.704 785.644 494.395 873C413.292 778.632 365.325 728.477 272.913 646.579C222.743 595.351 223.864 513.283 275.36 463.373L279.133 459.721C330.629 409.811 413.124 410.927 463.294 462.156L500.827 500.648L680.5 684.28Z" fill="#34D399"/>
<path d="M494.2 387.7C566.549 387.7 625.2 329.049 625.2 256.7C625.2 184.351 566.549 125.7 494.2 125.7C421.851 125.7 363.2 184.351 363.2 256.7C363.2 329.049 421.851 387.7 494.2 387.7Z" fill="#34D399"/>
</svg>
